<?xml version="1.0" standalone="no"?>
<!DOCTYPE svg PUBLIC "-//W3C//DTD SVG 20010904//EN"
 "http://www.w3.org/TR/2001/REC-SVG-20010904/DTD/svg10.dtd">
<svg version="1.0" xmlns="http://www.w3.org/2000/svg"
 width="320.000000pt" height="320.000000pt" viewBox="0 0 320.000000 320.000000"
 preserveAspectRatio="xMidYMid meet">
<metadata>
Created by potrace 1.11, written by Peter Selinger 2001-2013
</metadata>
<g transform="translate(0.000000,320.000000) scale(0.100000,-0.100000)"
fill="#000000" stroke="none">
<path d="M395 1716 l0 -721 133 -3 c101 -2 132 0 133 10 1 7 2 150 3 318 l1
305 67 -1 c38 0 79 -7 93 -14 14 -7 58 -56 97 -109 40 -53 75 -98 79 -101 3
-3 60 -77 126 -165 67 -88 137 -178 156 -200 l35 -40 236 0 c222 0 237 1 255
20 10 11 45 90 76 176 l57 155 298 0 c164 -1 300 -3 302 -6 3 -3 15 -34 27
-70 12 -36 29 -79 37 -97 8 -17 14 -35 14 -41 0 -30 51 -119 74 -130 32 -14
246 -17 246 -3 0 6 -39 108 -86 228 -47 120 -166 423 -264 673 -99 250 -187
473 -196 495 l-18 41 -136 0 -136 0 -52 -130 c-28 -72 -80 -205 -116 -296
-160 -410 -367 -934 -369 -937 -4 -3 -2 -5 -275 362 -110 149 -210 277 -222
285 -58 40 -57 36 -22 65 28 24 218 251 322 385 19 25 39 50 45 56 36 40 165
201 165 206 0 3 -63 4 -139 3 -156 -1 -165 -5 -225 -77 -41 -50 -255 -321
-336 -426 -62 -81 -97 -102 -167 -102 l-49 0 0 303 1 302 -135 1 -135 1 0
-721z m1940 194 c31 -85 73 -198 92 -250 19 -52 36 -101 36 -109 2 -12 -35
-15 -226 -15 -199 -1 -227 1 -221 14 3 8 24 65 46 125 21 61 43 119 48 130 21
51 95 260 110 310 6 22 14 47 17 55 3 8 13 -11 23 -45 10 -33 44 -130 75 -215z"/>
</g>
</svg>
